<svg version="1.1" id="Layer_1" xmlns="http://www.w3.org/2000/svg" xmlns:xlink="http://www.w3.org/1999/xlink" x="0px" y="0px"
	 width="100%" viewBox="0 0 286 176" enable-background="new 0 0 286 176" xml:space="preserve">
<path fill="#FCFDFE" opacity="1.000000" stroke="none" 
	d="
M215.000000,177.000000 
	C143.333344,177.000000 72.166687,177.000000 1.000019,177.000000 
	C1.000013,118.333351 1.000013,59.666698 1.000006,1.000035 
	C96.333305,1.000023 191.666611,1.000023 286.999939,1.000012 
	C286.999939,59.666630 286.999939,118.333260 286.999969,176.999939 
	C263.166656,177.000000 239.333328,177.000000 215.000000,177.000000 
M123.242012,152.250076 
	C121.830208,152.326950 120.418396,152.403824 119.414719,152.458481 
	C119.414719,156.415054 119.414719,160.267410 119.414719,164.119766 
	C119.887726,164.141342 120.360733,164.162918 120.833733,164.184479 
	C120.962273,162.071396 120.799271,159.882355 121.322960,157.872192 
	C121.665909,156.555786 123.002808,155.498322 123.931320,155.205078 
	C124.830711,158.142151 122.248711,162.069656 126.956047,165.223007 
	C126.956047,160.801636 127.145470,157.509293 126.820641,154.268463 
	C126.741096,153.474854 124.979141,152.849854 123.242012,152.250076 
M247.994705,151.131363 
	C247.228409,149.151749 249.814407,145.778030 245.300140,144.852722 
	C245.300140,151.505356 245.300140,157.758667 245.300140,164.011978 
	C246.880829,163.580338 247.842178,162.695053 247.940933,161.722229 
	C248.192093,159.248215 248.057373,156.735001 248.891693,154.119629 
	C249.524780,155.672562 250.340637,157.179977 250.741806,158.790680 
	C251.180832,160.553345 251.236694,162.411469 251.459549,164.227982 
	C251.918823,164.164490 252.378098,164.100983 252.837372,164.037476 
	C252.837372,160.044510 252.837372,156.051544 252.837372,152.015549 
	C250.975708,152.015549 249.485748,152.015549 247.994705,151.131363 
M187.221313,160.836441 
	C187.653870,161.989227 188.086426,163.141998 188.518982,164.294785 
	C189.176300,164.094086 189.833618,163.893372 190.490936,163.692673 
	C189.996445,157.504562 189.501938,151.316452 188.181503,145.049911 
	C187.608871,147.621887 187.036255,150.193848 186.437943,152.881165 
	C185.657272,152.835342 184.188507,152.948868 184.130981,152.715073 
	C183.503494,150.165604 183.096802,147.561798 182.597549,144.792679 
	C179.057968,147.525742 179.285095,162.648102 182.899780,164.286163 
	C183.007339,162.902222 182.897781,161.579391 183.254028,160.396881 
	C183.735703,158.798126 184.575134,157.307159 185.261063,155.769943 
	C185.958527,157.175827 186.655991,158.581711 187.221313,160.836441 
M176.265747,9.876889 
	C175.507767,9.930541 174.749802,9.984193 173.500443,9.909888 
	C173.336655,9.952582 173.172867,9.995277 172.342636,9.882105 
	C171.892349,9.934075 171.442062,9.986046 170.500443,9.910101 
	C170.336761,9.953092 170.173065,9.996081 169.183502,9.888907 
	C159.599869,10.439765 152.476242,15.843841 151.738342,25.053940 
	C150.884079,35.716362 151.539474,46.499737 151.539474,57.103134 
	C162.522049,57.103134 173.269058,57.103134 184.525284,57.184917 
	C184.683853,57.118504 184.842422,57.052090 185.733429,56.966892 
	C193.606796,54.422668 198.624405,49.188705 198.969574,40.829922 
	C199.379684,30.898184 198.980164,20.933014 198.955811,10.416714 
	C198.640213,10.288035 198.324631,10.159358 197.341736,9.880447 
	C196.891754,9.932902 196.441788,9.985356 195.500427,9.909842 
	C195.336609,9.952475 195.172806,9.995106 194.215149,9.876069 
	C193.140701,9.929972 192.066269,9.983874 190.500427,9.909848 
	C190.336639,9.952500 190.172852,9.995152 189.263107,9.876923 
	C188.506012,9.930564 187.748917,9.984204 186.500427,9.909860 
	C186.336624,9.952508 186.172836,9.995156 185.263107,9.876923 
	C184.506012,9.930563 183.748917,9.984204 182.500443,9.909888 
	C182.336655,9.952582 182.172867,9.995277 181.341660,9.882096 
	C180.890717,9.934017 180.439758,9.985938 179.252045,9.890648 
	C178.505554,9.939639 177.759079,9.988630 176.265747,9.876889 
M142.580902,43.510639 
	C142.469849,38.697357 142.732529,33.839622 142.166458,29.080463 
	C141.131607,20.380281 133.888596,14.070576 125.189362,13.904681 
	C119.040421,13.787421 112.887489,13.878121 106.736343,13.876807 
	C102.831169,13.875973 98.926003,13.876651 94.907028,13.876651 
	C94.907028,24.816008 94.731186,34.954914 94.966072,45.084297 
	C95.135284,52.381134 100.890366,60.172031 108.010864,60.721470 
	C119.332291,61.595066 130.770538,60.954697 142.580536,60.954697 
	C142.580536,55.410770 142.580536,49.957886 142.580902,43.510639 
M155.576080,66.195099 
	C152.841568,66.195099 150.107056,66.195099 147.195099,66.195099 
	C147.195099,73.185715 147.194397,79.328781 147.195786,85.471848 
	C147.196014,86.468796 147.154282,87.469101 147.219162,88.462151 
	C147.671982,95.393379 151.556351,100.828270 158.089508,101.403923 
	C166.251083,102.123062 174.524170,101.576729 183.034866,101.576729 
	C183.034866,94.245941 183.071686,87.280991 183.025345,80.316589 
	C182.970032,72.004944 177.784256,66.547409 169.516190,66.228004 
	C165.202209,66.061348 160.876587,66.196373 155.576080,66.195099 
M107.736343,74.717178 
	C107.736343,83.608246 107.736343,92.499313 107.736343,101.937218 
	C114.627563,101.937218 121.742836,102.020844 128.855240,101.913773 
	C136.014923,101.805992 141.735245,97.483665 142.369904,90.434669 
	C143.078247,82.567116 142.532349,74.586632 142.532349,66.100906 
	C135.245071,66.100906 128.298965,66.098640 121.352875,66.101593 
	C115.366486,66.104134 110.691124,68.335808 107.736343,74.717178 
M18.022490,127.024094 
	C18.022490,128.669785 18.022490,130.315460 18.022490,132.151001 
	C44.836613,132.151001 71.238564,132.151001 97.610527,132.151001 
	C98.647636,121.000809 98.290878,118.545052 94.990837,117.070854 
	C94.990837,121.393517 94.990837,125.486404 94.990837,129.579300 
	C94.421753,129.796341 93.852669,130.013382 93.283577,130.230423 
	C92.610535,129.069504 91.682701,127.980515 91.329407,126.729301 
	C90.894890,125.190453 90.939667,123.516281 90.781342,121.941078 
	C89.777596,122.075020 89.488884,122.072716 89.480331,122.120529 
	C89.055695,124.494301 88.655083,126.872360 88.206024,129.520050 
	C86.490746,129.520050 84.766029,129.520050 83.087685,129.520050 
	C81.912193,122.330063 81.912193,122.330063 73.643700,121.542946 
	C73.182266,120.042953 72.707062,118.498199 72.231865,116.953438 
	C71.577263,117.006142 70.922668,117.058838 70.268066,117.111542 
	C70.268066,119.881142 70.470795,122.671738 70.186974,125.411942 
	C70.033112,126.897499 69.050255,128.297195 68.441338,129.735611 
	C67.938576,128.362732 67.397896,127.002220 66.944130,125.613327 
	C66.523064,124.324532 66.194794,123.005409 65.825668,121.699638 
	C65.318466,121.810196 64.811272,121.920753 64.304070,122.031311 
	C64.088570,124.576294 63.873070,127.121277 63.657570,129.666260 
	C63.129345,129.848740 62.601116,130.031204 62.072891,130.213684 
	C61.469666,128.990158 60.648312,127.821983 60.320156,126.528671 
	C59.936871,125.018082 59.984035,123.398270 59.844444,121.825836 
	C59.296635,121.818741 58.748829,121.811638 58.201019,121.804543 
	C57.894684,124.376099 57.588348,126.947662 57.279087,129.543762 
	C55.310757,129.543762 53.714851,129.543762 51.864346,129.543762 
	C51.589294,126.931213 51.338005,124.544365 51.093838,122.225136 
	C43.880413,121.564056 42.612366,122.802971 43.232956,129.615616 
	C35.803200,131.093445 41.776379,122.911644 37.020248,121.713402 
	C36.725784,124.352516 36.449085,126.832436 36.154408,129.473480 
	C31.068468,129.473480 26.169271,129.473480 21.195408,129.473480 
	C21.064348,126.836586 20.949692,124.529701 20.834812,122.218346 
	C14.625886,122.722649 11.832781,125.670570 11.375472,133.310349 
	C12.862933,131.661316 13.647478,130.787216 14.436841,129.917496 
	C15.550215,128.690781 16.667143,127.467278 18.022490,127.024094 
M181.542480,129.810745 
	C179.966766,129.707565 178.391068,129.604370 176.900208,129.506744 
	C176.475159,126.561256 176.132523,124.186905 175.789886,121.812553 
	C175.338028,121.905174 174.886154,121.997803 174.434296,122.090431 
	C172.908447,129.435883 172.908447,129.435883 170.173569,129.061981 
	C170.051132,126.796822 169.927734,124.513657 169.801056,122.170059 
	C166.507812,121.698593 163.155533,121.158234 162.170319,125.009102 
	C161.200043,128.801544 161.828323,132.401230 168.002060,132.804077 
	C165.044434,134.139114 163.403412,134.879852 161.762390,135.620590 
	C162.046387,136.280182 162.330399,136.939774 162.614395,137.599365 
	C164.804184,136.878036 168.235123,136.757568 168.933762,135.314377 
	C170.550156,131.975388 172.973846,132.474045 175.518524,132.468384 
	C185.957748,132.445160 196.397064,132.458694 206.521088,132.458694 
	C206.521088,126.919098 206.521088,122.017662 206.521088,117.116234 
	C205.861069,117.093826 205.201065,117.071419 204.541046,117.049011 
	C204.541046,119.853180 204.762650,122.682228 204.451675,125.451477 
	C204.285187,126.934013 203.201477,128.313553 202.531693,129.739578 
	C201.998016,128.388962 201.406616,127.057625 200.947372,125.682159 
	C200.513657,124.383133 200.218903,123.037704 199.863022,121.712685 
	C199.349609,121.813873 198.836197,121.915070 198.322784,122.016258 
	C198.096161,124.557877 197.869553,127.099487 197.647797,129.586700 
	C195.641022,129.586700 194.015213,129.586700 192.212845,129.586700 
	C192.188873,123.354469 187.486496,123.891487 182.402863,123.897141 
	C184.530823,122.184181 185.676407,121.283745 186.797180,120.353409 
	C187.819916,119.504456 188.815750,118.623093 190.414902,117.247086 
	C182.891907,117.720360 179.530106,121.211922 180.607193,126.408112 
	C183.162216,127.813576 187.025101,125.180191 189.952316,129.810730 
	C186.647583,129.810730 184.560532,129.810730 181.542480,129.810745 
M135.307083,122.021858 
	C135.830368,122.874451 136.332031,124.448387 136.880341,124.464806 
	C141.032745,124.589142 140.241577,126.968353 139.679718,129.477188 
	C136.660477,129.477188 133.928665,129.477188 131.451904,129.477188 
	C130.917023,126.617592 130.455673,124.151138 129.994324,121.684685 
	C129.403564,121.805450 128.812805,121.926216 128.222031,122.046982 
	C128.074158,124.462624 127.926277,126.878273 127.773376,129.375854 
	C122.544876,129.375854 117.540352,129.375854 111.759659,129.375854 
	C111.759659,125.016869 111.759659,121.095726 111.759659,117.174583 
	C111.258888,117.179367 110.758125,117.184151 110.257355,117.188934 
	C110.257355,122.165550 110.257355,127.142174 110.257355,132.238098 
	C121.092667,132.238098 131.846268,132.238098 142.564362,132.238098 
	C143.939362,123.490051 143.016266,122.054832 135.307083,122.021858 
M156.951843,127.937294 
	C156.201889,128.530304 155.451920,129.123322 154.701965,129.716339 
	C154.211517,128.983124 153.393112,128.290085 153.297394,127.508507 
	C153.083710,125.763870 153.230621,123.975067 153.230621,120.361092 
	C149.848053,122.269096 146.757126,122.964462 145.713303,124.814713 
	C143.378662,128.952988 146.467712,131.587936 150.010284,133.323608 
	C148.058533,134.165070 146.454941,134.856430 144.851334,135.547806 
	C145.040085,136.118118 145.228821,136.688446 145.417557,137.258774 
	C147.590698,136.883469 150.000580,136.973984 151.879257,136.019257 
	C154.436996,134.719452 156.589249,132.621719 159.805176,130.194580 
	C160.644318,120.922310 160.309006,118.588638 156.965927,116.961502 
	C156.965927,120.502373 156.965927,123.777206 156.951843,127.937294 
M247.616501,123.903885 
	C247.092575,123.151329 246.568649,122.398766 245.228104,120.473221 
	C244.925949,124.443771 244.742722,126.851364 244.542938,129.476578 
	C239.366760,129.476578 234.472015,129.476578 229.378510,129.476578 
	C229.195221,126.806778 229.032028,124.429665 228.865417,122.002541 
	C222.290497,123.330132 220.414627,125.360657 220.313553,132.824371 
	C221.964554,130.569565 223.615540,128.314758 225.843140,125.272476 
	C226.121490,128.182739 226.302872,130.079193 226.497574,132.114868 
	C233.523682,132.114868 240.408417,132.114868 247.629562,132.114868 
	C247.629562,129.410614 247.629562,127.094589 247.616501,123.903885 
M197.152252,157.535233 
	C197.245865,160.610504 197.204773,163.699936 197.525497,166.751343 
	C197.608231,167.538467 198.740219,168.682617 199.543427,168.830490 
	C201.276230,169.149475 203.108398,168.928574 205.190170,168.928574 
	C205.190170,163.069473 205.190170,157.677475 205.190170,151.914581 
	C201.917648,152.969101 196.543915,149.470505 197.152252,157.535233 
M260.447906,129.621704 
	C255.039917,128.905930 260.018677,124.097450 256.225403,121.494049 
	C254.762115,122.209427 251.390045,122.742584 250.447784,124.545593 
	C248.339066,128.580521 250.410446,131.866455 254.863586,133.296036 
	C252.846207,134.169952 251.260895,134.856689 249.675583,135.543427 
	C249.868240,136.147263 250.060898,136.751083 250.253571,137.354919 
	C252.388763,136.893829 254.722778,136.825638 256.608429,135.871429 
	C258.925903,134.698715 260.869110,132.786377 263.523682,130.777908 
	C263.523682,128.634277 263.523682,125.284805 263.523682,121.935333 
	C263.006348,121.898308 262.489014,121.861290 261.971680,121.824265 
	C261.670685,124.220406 261.369720,126.616539 260.447906,129.621704 
M155.178528,152.896500 
	C155.178528,157.736511 155.178528,162.576523 155.178528,168.039551 
	C158.445602,169.939362 162.755676,169.612030 162.927261,166.622543 
	C163.205276,161.778641 163.002106,156.907104 163.002106,152.259323 
	C160.095306,152.259323 157.974213,152.259323 155.178528,152.896500 
M224.601456,158.104156 
	C223.996017,159.887253 223.390579,161.670349 222.613144,163.960052 
	C226.532242,163.960052 229.414963,163.960052 232.095352,163.960052 
	C234.366302,158.279022 231.033218,155.313126 227.623322,152.155212 
	C226.782028,151.376083 227.045639,149.403854 226.801331,147.980087 
	C227.798660,148.615784 228.795486,149.252274 229.793488,149.886902 
	C230.384460,150.262711 230.948990,150.829926 231.582001,150.921997 
	C231.867569,150.963501 232.585602,150.062607 232.596756,149.577530 
	C232.629715,148.145264 232.407822,146.707138 232.285492,145.269562 
	C231.154587,145.147873 230.459473,144.901108 229.851044,145.038406 
	C227.620895,145.541702 225.419556,146.172729 223.207382,146.755676 
	C224.140350,149.410767 224.849579,152.176529 226.088043,154.680511 
	C226.862915,156.247192 228.653580,157.293228 229.542175,158.830795 
	C229.901794,159.453049 229.073151,160.762024 228.785233,161.758514 
	C227.900589,161.154205 226.934143,160.636719 226.163849,159.911026 
	C225.742722,159.514282 225.653458,158.765289 224.601456,158.104156 
M62.155624,160.257339 
	C62.443386,167.461685 67.610008,162.639847 70.896515,164.619492 
	C70.063530,157.431686 71.918945,151.008713 69.773247,145.022659 
	C69.216843,145.064163 68.660439,145.105652 68.104042,145.147156 
	C67.960907,147.231812 67.817772,149.316483 67.642525,151.868835 
	C60.666569,150.641525 62.277760,155.589005 62.155624,160.257339 
M11.374616,153.826981 
	C10.807280,157.236954 10.239943,160.646912 9.672606,164.056885 
	C10.015327,164.506607 10.358049,164.956329 10.700771,165.406052 
	C13.267664,157.801926 16.586805,162.313034 19.897585,164.308273 
	C17.294819,157.604431 19.433893,150.015366 13.326904,144.194504 
	C12.614014,147.825562 12.105284,150.416733 11.374616,153.826981 
M23.793993,152.055283 
	C23.066378,152.836655 21.728165,153.604935 21.711102,154.401520 
	C21.607115,159.255707 21.803493,164.116333 21.899666,168.974808 
	C22.448809,168.975677 22.997952,168.976562 23.547096,168.977432 
	C23.956587,167.538025 24.366077,166.098633 24.760412,164.712494 
	C30.491133,163.630402 31.701178,160.064819 29.088680,152.209473 
	C27.627741,152.209473 26.152485,152.209473 23.793993,152.055283 
M255.216309,161.017761 
	C255.980377,167.334702 260.405975,163.035843 263.230774,164.273148 
	C263.230774,159.908585 263.230774,156.085770 263.230774,152.174042 
	C260.502625,152.174042 258.234375,152.174042 255.214844,152.174042 
	C255.214844,154.964081 255.214844,157.553406 255.216309,161.017761 
M145.019073,152.316147 
	C144.708298,156.138489 144.397537,159.960815 144.068298,164.010254 
	C147.372559,164.010254 149.757217,164.010254 152.201828,164.010254 
	C152.201828,159.896317 152.201828,156.075302 152.201828,152.002075 
	C149.781357,152.002075 147.814972,152.002075 145.019073,152.316147 
M31.854128,157.563736 
	C31.854128,161.356079 31.854128,165.148422 31.854128,168.940765 
	C32.498718,169.025101 33.143307,169.109451 33.787899,169.193787 
	C34.293930,167.712646 34.799961,166.231522 35.308937,164.744644 
	C40.684528,163.597580 41.911373,159.625977 39.207687,152.128174 
	C36.934769,152.128174 34.661854,152.128174 32.067871,152.128174 
	C31.992008,153.712967 31.923115,155.152176 31.854128,157.563736 
M274.327515,132.464874 
	C278.517395,131.940445 279.468292,128.412842 276.028442,121.786980 
	C275.598328,124.372185 275.168243,126.957390 274.690491,129.828979 
	C272.899963,129.721741 271.327911,129.627594 269.591919,129.523636 
	C269.379425,125.058006 269.188171,121.039360 268.996948,117.020721 
	C268.368896,117.058800 267.740875,117.096878 267.112854,117.134964 
	C267.112854,122.060204 267.112854,126.985443 267.112854,132.464798 
	C269.199829,132.464798 271.319763,132.464798 274.327515,132.464874 
M116.757080,162.681107 
	C116.757080,159.247604 116.757080,155.814102 116.757080,152.244339 
	C114.506630,151.992752 112.824661,151.804718 110.796112,151.577927 
	C110.796112,149.188461 110.796112,147.130554 110.796112,144.824890 
	C107.209221,147.191681 107.229225,162.409286 110.431259,164.203430 
	C112.804405,161.401840 108.902763,156.618652 113.854248,153.455582 
	C113.854248,156.975800 113.854179,159.439209 113.854263,161.902618 
	C113.854332,164.128983 114.470406,165.251389 116.757080,162.681107 
M265.812012,159.334106 
	C265.909485,160.901733 266.006927,162.469360 266.101929,163.997421 
	C269.004852,163.997421 271.409088,163.997421 273.768372,163.997421 
	C273.768372,159.915192 273.768372,156.174622 273.768372,152.248123 
	C271.059082,152.248123 268.680359,152.248123 265.811981,152.248123 
	C265.811981,154.498886 265.811981,156.448975 265.812012,159.334106 
M207.825485,147.852890 
	C207.825485,153.302689 207.825485,158.752502 207.825485,164.202301 
	C208.504608,164.227783 209.183731,164.253250 209.862869,164.278717 
	C210.260941,160.846390 210.659012,157.414047 211.195648,152.786957 
	C214.747833,157.095734 210.961395,161.884216 215.747498,165.008408 
	C215.747498,160.177246 215.747498,156.296799 215.747498,152.155365 
	C213.889328,152.026398 212.299698,151.916061 210.358398,151.781326 
	C210.358398,149.958084 210.477875,148.303085 210.294067,146.682480 
	C210.229050,146.109207 209.424133,145.619843 208.957001,145.092178 
	C208.581894,145.707932 208.206802,146.323700 207.825485,147.852890 
M80.560982,163.152374 
	C83.169075,164.025955 82.864540,163.976349 83.350021,160.996292 
	C84.172630,155.946823 80.412651,149.927750 87.407524,145.687836 
	C83.321869,145.687836 80.274544,145.687836 78.309067,145.687836 
	C79.121765,148.380630 80.156792,150.630554 80.418198,152.967041 
	C80.765144,156.068115 80.508286,159.236755 80.560982,163.152374 
M130.742035,152.015366 
	C129.935684,155.893555 129.129333,159.771729 128.265884,163.924561 
	C131.965515,163.924561 134.367004,163.924561 136.859802,163.924561 
	C136.859802,159.866104 136.859802,156.130173 136.859802,151.989517 
	C134.920715,151.989517 133.291931,151.989517 130.742035,152.015366 
M91.509315,164.316391 
	C93.315437,163.947235 96.276375,165.503387 95.996880,161.671967 
	C95.957268,161.128983 95.528008,160.614410 95.117020,159.743073 
	C93.767128,160.798233 92.739517,161.601471 91.404129,162.645294 
	C89.475677,157.175323 94.714958,160.047577 95.601898,158.112595 
	C95.601898,156.216049 95.601898,154.202713 95.601898,152.264465 
	C92.895859,152.264465 90.648941,152.264465 87.926552,152.264465 
	C87.926552,155.672424 87.723618,158.799454 88.052757,161.869415 
	C88.148933,162.766403 89.760422,163.500946 91.509315,164.316391 
M172.667740,155.603043 
	C172.805618,154.447250 172.943497,153.291443 173.081375,152.135651 
	C172.664978,151.971039 172.248581,151.806427 171.832184,151.641830 
	C170.922272,153.044418 170.012360,154.447006 169.090302,155.868317 
	C167.968445,154.444077 166.889389,153.074188 165.810333,151.704285 
	C165.542450,151.892136 165.274582,152.080002 165.006699,152.267853 
	C165.880127,157.760757 166.753555,163.253677 167.626984,168.746597 
	C168.046448,168.927673 168.465897,169.108749 168.885361,169.289841 
	C170.048294,164.966232 171.211212,160.642639 172.667740,155.603043 
M56.451393,164.260345 
	C58.451538,164.262726 60.734684,164.591370 60.049839,161.332428 
	C59.964962,160.928528 59.602554,160.582947 59.284027,160.075317 
	C58.087051,160.969467 57.027279,161.761108 55.801933,162.676453 
	C55.236671,159.192078 55.236671,159.192078 59.809853,158.319595 
	C59.809853,156.311462 59.809853,154.284470 59.809853,152.295502 
	C52.068958,151.626694 52.068859,151.626694 52.099735,158.890640 
	C52.103252,159.718231 51.773540,160.819702 52.180874,161.317993 
	C53.110733,162.455505 54.401905,163.297653 56.451393,164.260345 
M99.057655,164.089996 
	C101.301025,164.089996 103.544388,164.089996 106.066177,164.089996 
	C105.955788,162.385132 105.875603,161.146637 105.760132,159.363205 
	C104.067543,160.483170 102.870049,161.275528 101.232002,162.359406 
	C101.232002,159.320938 101.232002,156.842529 101.232002,153.682297 
	C102.910378,154.921509 104.062683,155.772293 105.726433,157.000717 
	C105.726433,154.985245 105.726433,153.654022 105.726433,152.413025 
	C102.991081,152.413025 100.636681,152.413025 98.309776,152.413025 
	C98.309776,156.455536 98.309776,160.059372 99.057655,164.089996 
M234.840485,161.144516 
	C235.366104,162.168060 235.743378,163.933899 236.445511,164.074234 
	C238.451080,164.475021 240.588699,164.215149 243.011688,164.215149 
	C242.868698,162.304459 242.778030,161.093018 242.637268,159.212296 
	C240.895798,160.416977 239.725723,161.226379 238.053253,162.383331 
	C238.053253,159.315018 238.053253,156.847733 238.053253,153.674667 
	C239.756195,154.969788 240.865723,155.813614 242.156433,156.795212 
	C243.307831,151.567688 241.878815,150.861404 234.842926,152.870529 
	C234.842926,155.263855 234.842926,157.746567 234.840485,161.144516 
M212.322601,128.038055 
	C212.322601,124.386780 212.322601,120.735497 212.322601,117.084221 
	C211.683609,116.995461 211.044601,116.906708 210.405609,116.817955 
	C210.035156,117.829887 209.391647,118.829468 209.345200,119.856064 
	C209.203140,122.995583 209.170013,126.152641 209.355621,129.287415 
	C209.418762,130.353683 210.257828,131.373993 210.742340,132.415314 
	C211.268799,131.238800 211.795242,130.062271 212.322601,128.038055 
M42.290459,145.999863 
	C42.257591,151.126770 42.139690,156.255707 42.262787,161.378860 
	C42.287750,162.417755 43.222313,163.434814 43.737541,164.461929 
	C44.201626,164.272522 44.665710,164.083099 45.129795,163.893677 
	C45.129795,158.305206 45.206623,152.714264 45.026993,147.131577 
	C45.005901,146.475952 43.573570,145.865738 42.290459,145.999863 
M141.615021,145.136612 
	C140.833817,145.673569 139.390656,146.190872 139.374069,146.750519 
	C139.212601,152.193161 139.239899,157.644241 139.388199,163.088165 
	C139.400909,163.555237 140.668488,163.988129 142.073868,164.909302 
	C142.073868,158.041534 142.073868,151.989777 141.615021,145.136612 
M278.982208,153.544830 
	C278.982208,150.718185 278.982208,147.891556 278.982208,144.350006 
	C277.371246,145.156769 276.390198,145.407501 276.381653,145.687851 
	C276.206329,151.443512 276.106995,157.202667 276.129669,162.960602 
	C276.131256,163.369553 277.191895,163.774338 277.760071,164.181076 
	C278.164215,163.601242 278.887726,163.037262 278.917450,162.438843 
	C279.048309,159.804062 278.979004,157.159332 278.982208,153.544830 
M101.509293,117.148743 
	C100.804504,122.059921 100.099724,126.971107 99.311333,132.464859 
	C103.308411,130.984970 104.014961,125.305756 101.509293,117.148743 
M192.152451,160.112213 
	C192.493713,161.558121 192.834976,163.004028 193.176239,164.449951 
	C193.702209,164.328445 194.228180,164.206940 194.754150,164.085434 
	C194.754150,160.086670 194.754150,156.087906 194.754150,152.089142 
	C194.162445,151.986542 193.570740,151.883926 192.979034,151.781326 
	C192.703537,154.267151 192.428024,156.752975 192.152451,160.112213 
M50.033699,156.624283 
	C50.033699,155.099884 50.033699,153.575500 50.033699,152.051102 
	C49.324921,151.963165 48.616138,151.875214 47.907360,151.787277 
	C46.222309,154.996994 47.406361,158.821136 47.215805,162.309799 
	C47.178577,162.991333 48.389065,163.741028 49.024059,164.459274 
	C49.360641,164.270508 49.697224,164.081741 50.033806,163.892975 
	C50.033806,161.784775 50.033806,159.676575 50.033699,156.624283 
z"/>
<path fill="#53BA4A" opacity="1.000000" stroke="none" 
	d="
M184.016083,57.103134 
	C173.269058,57.103134 162.522049,57.103134 151.539474,57.103134 
	C151.539474,46.499737 150.884079,35.716362 151.738342,25.053940 
	C152.476242,15.843841 159.599869,10.439765 169.684921,10.126263 
	C170.454819,10.255083 170.723297,10.146547 170.991776,10.038013 
	C171.442062,9.986046 171.892349,9.934075 172.764221,10.122505 
	C173.454483,10.254553 173.723160,10.146199 173.991821,10.037846 
	C174.749802,9.984193 175.507767,9.930541 176.820679,10.202837 
	C178.246674,10.365144 179.117737,10.201501 179.988815,10.037859 
	C180.439758,9.985938 180.890717,9.934017 181.763733,10.122501 
	C182.454483,10.254553 182.723160,10.146200 182.991821,10.037846 
	C183.748917,9.984204 184.506012,9.930563 185.724426,10.119854 
	C186.454437,10.254470 186.723129,10.146155 186.991821,10.037844 
	C187.748917,9.984204 188.506012,9.930564 189.724457,10.119844 
	C190.454468,10.254438 190.723145,10.146110 190.991821,10.037779 
	C192.066269,9.983874 193.140701,9.929972 194.700424,10.119404 
	C195.454407,10.254430 195.723099,10.146120 195.991806,10.037811 
	C196.441788,9.985356 196.891754,9.932902 197.764236,10.170291 
	C198.362534,10.737515 198.610794,10.911581 198.931488,10.982331 
	C198.980164,20.933014 199.379684,30.898184 198.969574,40.829922 
	C198.624405,49.188705 193.606796,54.422668 185.261444,56.831474 
	C184.531662,56.831749 184.273865,56.967445 184.016083,57.103134 
M173.010559,42.107830 
	C173.843521,43.003025 174.676483,43.898220 175.509430,44.793411 
	C176.109802,43.821392 177.169724,42.876095 177.228058,41.872570 
	C177.439331,38.238689 177.076630,34.561993 177.430115,30.950350 
	C177.576981,29.449957 178.985550,28.074703 179.813644,26.638668 
	C180.252518,25.877586 181.101273,25.035349 180.985886,24.363575 
	C180.875687,23.721972 179.784607,22.834806 179.073105,22.784466 
	C176.434952,22.597805 173.767426,22.598951 171.129440,22.788069 
	C170.416824,22.839157 169.314575,23.732077 169.216476,24.366236 
	C169.112152,25.040785 169.830246,26.071690 170.478882,26.569746 
	C171.140900,27.078083 172.154892,27.128016 173.007904,27.376625 
	C173.007904,32.236641 173.007904,36.707592 173.010559,42.107830 
z"/>
<path fill="#0998D7" opacity="1.000000" stroke="none" 
	d="
M142.580719,44.007820 
	C142.580536,49.957886 142.580536,55.410770 142.580536,60.954697 
	C130.770538,60.954697 119.332291,61.595066 108.010864,60.721470 
	C100.890366,60.172031 95.135284,52.381134 94.966072,45.084297 
	C94.731186,34.954914 94.907028,24.816008 94.907028,13.876651 
	C98.926003,13.876651 102.831169,13.875973 106.736343,13.876807 
	C112.887489,13.878121 119.040421,13.787421 125.189362,13.904681 
	C133.888596,14.070576 141.131607,20.380281 142.166458,29.080463 
	C142.732529,33.839622 142.469849,38.697357 142.580719,44.007820 
M114.337830,41.831680 
	C113.944237,44.038551 113.550644,46.245422 113.157051,48.452293 
	C113.564178,48.779545 113.971306,49.106796 114.378441,49.434052 
	C115.526215,48.360523 116.677307,47.290512 117.820641,46.212284 
	C118.633102,45.446079 119.341087,44.269211 120.277626,44.048874 
	C120.824356,43.920250 121.725006,45.317238 122.473564,46.020260 
	C123.624435,47.101124 124.781441,48.175465 125.935844,49.252571 
	C126.341232,48.873596 126.746620,48.494621 127.152008,48.115646 
	C126.002533,41.961147 125.004875,35.771107 123.579376,29.681221 
	C123.283508,28.417252 121.357010,26.649117 120.261040,26.703575 
	C119.129974,26.759781 117.538429,28.585308 117.125916,29.935452 
	C116.019753,33.555874 115.436409,37.336040 114.337830,41.831680 
z"/>
<path fill="#084B92" opacity="1.000000" stroke="none" 
	d="
M156.066147,66.195114 
	C160.876587,66.196373 165.202209,66.061348 169.516190,66.228004 
	C177.784256,66.547409 182.970032,72.004944 183.025345,80.316589 
	C183.071686,87.280991 183.034866,94.245941 183.034866,101.576729 
	C174.524170,101.576729 166.251083,102.123062 158.089508,101.403923 
	C151.556351,100.828270 147.671982,95.393379 147.219162,88.462151 
	C147.154282,87.469101 147.196014,86.468796 147.195786,85.471848 
	C147.194397,79.328781 147.195099,73.185715 147.195099,66.195099 
	C150.107056,66.195099 152.841568,66.195099 156.066147,66.195114 
M169.876724,84.905052 
	C168.238495,83.520905 166.476135,82.256500 164.994827,80.720970 
	C163.309097,78.973541 163.475555,77.383789 166.129578,76.835548 
	C167.200897,76.614243 168.356110,76.799065 169.473145,76.799065 
	C169.776093,76.355034 170.079041,75.911003 170.381989,75.466965 
	C169.381271,74.615059 168.112518,72.867020 167.427841,73.071808 
	C164.929062,73.819176 161.771271,74.619843 160.446335,76.510704 
	C158.417725,79.405830 160.054474,82.422401 162.713028,84.801262 
	C164.192017,86.124657 165.209824,87.963455 166.435471,89.569977 
	C164.544098,90.078178 162.648438,90.571480 160.765854,91.110352 
	C160.476685,91.193123 160.247604,91.485809 159.426971,92.110725 
	C159.903320,92.984558 160.463043,94.791962 160.949112,94.772369 
	C163.507614,94.669220 166.434616,94.760429 168.499908,93.541183 
	C171.345703,91.861183 171.718628,88.706924 169.876724,84.905052 
z"/>
<path fill="#97989C" opacity="1.000000" stroke="none" 
	d="
M107.878128,74.340302 
	C110.691124,68.335808 115.366486,66.104134 121.352875,66.101593 
	C128.298965,66.098640 135.245071,66.100906 142.532349,66.100906 
	C142.532349,74.586632 143.078247,82.567116 142.369904,90.434669 
	C141.735245,97.483665 136.014923,101.805992 128.855240,101.913773 
	C121.742836,102.020844 114.627563,101.937218 107.736343,101.937218 
	C107.736343,92.499313 107.736343,83.608246 107.878128,74.340302 
M131.103867,89.344864 
	C131.101974,84.860237 131.207840,80.370926 131.012787,75.894714 
	C130.970703,74.929070 129.844116,74.010674 129.217087,73.070518 
	C128.480179,74.055550 127.330025,74.954048 127.101501,76.045517 
	C126.742958,77.757950 127.006355,79.600594 127.006355,81.324875 
	C122.678802,81.809212 122.777634,81.797676 122.110634,76.084488 
	C121.985542,75.013008 120.718575,74.074821 119.978546,73.075119 
	C119.345322,74.009499 118.194618,74.927429 118.164322,75.880966 
	C117.990372,81.356560 117.988579,86.843826 118.177559,92.318527 
	C118.208344,93.210182 119.481110,94.058968 120.179817,94.927559 
	C120.852203,94.033829 121.749283,93.225044 122.129013,92.220665 
	C122.459122,91.347519 122.259239,90.249832 122.198074,89.257263 
	C121.982597,85.760414 123.822433,85.460114 127.008263,86.445183 
	C127.008263,88.380089 126.791191,90.370193 127.099098,92.275467 
	C127.254913,93.239616 128.359482,94.050446 129.035095,94.930588 
	C129.721664,94.051353 130.528580,93.236374 131.046234,92.266937 
	C131.322968,91.748718 131.100891,90.964149 131.103867,89.344864 
z"/>
<path fill="#0E97D7" opacity="1.000000" stroke="none" 
	d="
M17.902519,126.633255 
	C16.667143,127.467278 15.550215,128.690781 14.436841,129.917496 
	C13.647478,130.787216 12.862933,131.661316 11.375472,133.310349 
	C11.832781,125.670570 14.625886,122.722649 20.834812,122.218346 
	C20.949692,124.529701 21.064348,126.836586 21.195408,129.473480 
	C26.169271,129.473480 31.068468,129.473480 36.154408,129.473480 
	C36.449085,126.832436 36.725784,124.352516 37.020248,121.713402 
	C41.776379,122.911644 35.803200,131.093445 43.232956,129.615616 
	C42.612366,122.802971 43.880413,121.564056 51.093838,122.225136 
	C51.338005,124.544365 51.589294,126.931213 51.864346,129.543762 
	C53.714851,129.543762 55.310757,129.543762 57.279087,129.543762 
	C57.588348,126.947662 57.894684,124.376099 58.201019,121.804543 
	C58.748829,121.811638 59.296635,121.818741 59.844444,121.825836 
	C59.984035,123.398270 59.936871,125.018082 60.320156,126.528671 
	C60.648312,127.821983 61.469666,128.990158 62.072891,130.213684 
	C62.601116,130.031204 63.129345,129.848740 63.657570,129.666260 
	C63.873070,127.121277 64.088570,124.576294 64.304070,122.031311 
	C64.811272,121.920753 65.318466,121.810196 65.825668,121.699638 
	C66.194794,123.005409 66.523064,124.324532 66.944130,125.613327 
	C67.397896,127.002220 67.938576,128.362732 68.441345,129.735611 
	C69.050255,128.297195 70.033112,126.897499 70.186974,125.411942 
	C70.470795,122.671738 70.268066,119.881142 70.268066,117.111542 
	C70.922668,117.058838 71.577263,117.006142 72.231865,116.953438 
	C72.707062,118.498199 73.182266,120.042953 73.643700,121.542946 
	C81.912193,122.330063 81.912193,122.330063 83.087685,129.520050 
	C84.766029,129.520050 86.490746,129.520050 88.206024,129.520050 
	C88.655083,126.872360 89.055695,124.494301 89.480331,122.120529 
	C89.488884,122.072716 89.777596,122.075020 90.781342,121.941078 
	C90.939667,123.516281 90.894890,125.190453 91.329407,126.729301 
	C91.682701,127.980515 92.610535,129.069504 93.283577,130.230423 
	C93.852669,130.013382 94.421753,129.796341 94.990837,129.579300 
	C94.990837,125.486404 94.990837,121.393517 94.990837,117.070854 
	C98.290878,118.545052 98.647636,121.000809 97.610527,132.151001 
	C71.238564,132.151001 44.836613,132.151001 18.022490,132.151001 
	C18.022490,130.315460 18.022490,128.669785 17.902519,126.633255 
M73.923004,124.519920 
	C73.582497,126.117172 73.241989,127.714417 72.858322,129.514099 
	C75.639931,129.514099 77.659981,129.514099 79.579651,129.514099 
	C80.823837,124.630272 78.227898,124.021217 73.923004,124.519920 
z"/>
<path fill="#0C97D7" opacity="1.000000" stroke="none" 
	d="
M182.007996,129.810730 
	C184.560532,129.810730 186.647583,129.810730 189.952316,129.810730 
	C187.025101,125.180191 183.162216,127.813576 180.607193,126.408112 
	C179.530106,121.211922 182.891907,117.720360 190.414902,117.247086 
	C188.815750,118.623093 187.819916,119.504456 186.797180,120.353409 
	C185.676407,121.283745 184.530823,122.184181 182.402863,123.897141 
	C187.486496,123.891487 192.188873,123.354469 192.212845,129.586700 
	C194.015213,129.586700 195.641022,129.586700 197.647797,129.586700 
	C197.869553,127.099487 198.096161,124.557877 198.322784,122.016258 
	C198.836197,121.915070 199.349609,121.813873 199.863022,121.712685 
	C200.218903,123.037704 200.513657,124.383133 200.947372,125.682159 
	C201.406616,127.057625 201.998016,128.388962 202.531693,129.739578 
	C203.201477,128.313553 204.285187,126.934013 204.451675,125.451477 
	C204.762650,122.682228 204.541046,119.853180 204.541046,117.049011 
	C205.201065,117.071419 205.861069,117.093826 206.521088,117.116234 
	C206.521088,122.017662 206.521088,126.919098 206.521088,132.458694 
	C196.397064,132.458694 185.957748,132.445160 175.518524,132.468384 
	C172.973846,132.474045 170.550156,131.975388 168.933762,135.314377 
	C168.235123,136.757568 164.804184,136.878036 162.614395,137.599365 
	C162.330399,136.939774 162.046387,136.280182 161.762390,135.620590 
	C163.403412,134.879852 165.044434,134.139114 168.002060,132.804077 
	C161.828323,132.401230 161.200043,128.801544 162.170319,125.009102 
	C163.155533,121.158234 166.507812,121.698593 169.801056,122.170059 
	C169.927734,124.513657 170.051132,126.796822 170.173569,129.061981 
	C172.908447,129.435883 172.908447,129.435883 174.434296,122.090431 
	C174.886154,121.997803 175.338028,121.905174 175.789886,121.812553 
	C176.132523,124.186905 176.475159,126.561256 176.900208,129.506744 
	C178.391068,129.604370 179.966766,129.707565 182.007996,129.810730 
z"/>
<path fill="#0B97D6" opacity="1.000000" stroke="none" 
	d="
M135.695068,121.957153 
	C143.016266,122.054832 143.939362,123.490051 142.564362,132.238098 
	C131.846268,132.238098 121.092667,132.238098 110.257355,132.238098 
	C110.257355,127.142174 110.257355,122.165550 110.257355,117.188934 
	C110.758125,117.184151 111.258888,117.179367 111.759659,117.174583 
	C111.759659,121.095726 111.759659,125.016869 111.759659,129.375854 
	C117.540352,129.375854 122.544876,129.375854 127.773376,129.375854 
	C127.926277,126.878273 128.074158,124.462624 128.222031,122.046982 
	C128.812805,121.926216 129.403564,121.805450 129.994324,121.684685 
	C130.455673,124.151138 130.917023,126.617592 131.451904,129.477188 
	C133.928665,129.477188 136.660477,129.477188 139.679718,129.477188 
	C140.241577,126.968353 141.032745,124.589142 136.880341,124.464806 
	C136.332031,124.448387 135.830368,122.874451 135.695068,121.957153 
z"/>
<path fill="#169BD8" opacity="1.000000" stroke="none" 
	d="
M156.958893,127.494675 
	C156.965927,123.777206 156.965927,120.502373 156.965927,116.961502 
	C160.309006,118.588638 160.644318,120.922310 159.805176,130.194580 
	C156.589249,132.621719 154.436996,134.719452 151.879257,136.019257 
	C150.000580,136.973984 147.590698,136.883469 145.417557,137.258774 
	C145.228821,136.688446 145.040085,136.118118 144.851334,135.547806 
	C146.454941,134.856430 148.058533,134.165070 150.010284,133.323608 
	C146.467712,131.587936 143.378662,128.952988 145.713303,124.814713 
	C146.757126,122.964462 149.848053,122.269096 153.230621,120.361092 
	C153.230621,123.975067 153.083710,125.763870 153.297394,127.508507 
	C153.393112,128.290085 154.211517,128.983124 154.701965,129.716339 
	C155.451920,129.123322 156.201889,128.530304 156.958893,127.494675 
z"/>
<path fill="#179AD8" opacity="1.000000" stroke="none" 
	d="
M247.623032,124.341217 
	C247.629562,127.094589 247.629562,129.410614 247.629562,132.114868 
	C240.408417,132.114868 233.523682,132.114868 226.497574,132.114868 
	C226.302872,130.079193 226.121490,128.182739 225.843140,125.272476 
	C223.615540,128.314758 221.964554,130.569565 220.313553,132.824371 
	C220.414627,125.360657 222.290497,123.330132 228.865417,122.002541 
	C229.032028,124.429665 229.195221,126.806778 229.378510,129.476578 
	C234.472015,129.476578 239.366760,129.476578 244.542938,129.476578 
	C244.742722,126.851364 244.925949,124.443771 245.228104,120.473221 
	C246.568649,122.398766 247.092575,123.151329 247.623032,124.341217 
z"/>
<path fill="#0F4891" opacity="1.000000" stroke="none" 
	d="
M197.152374,157.093033 
	C196.543915,149.470505 201.917648,152.969101 205.190170,151.914581 
	C205.190170,157.677475 205.190170,163.069473 205.190170,168.928574 
	C203.108398,168.928574 201.276230,169.149475 199.543427,168.830490 
	C198.740219,168.682617 197.608231,167.538467 197.525497,166.751343 
	C197.204773,163.699936 197.245865,160.610504 197.152374,157.093033 
z"/>
<path fill="#159AD8" opacity="1.000000" stroke="none" 
	d="
M260.758301,129.317200 
	C261.369720,126.616539 261.670685,124.220406 261.971680,121.824265 
	C262.489014,121.861290 263.006348,121.898308 263.523682,121.935333 
	C263.523682,125.284805 263.523682,128.634277 263.523682,130.777908 
	C260.869110,132.786377 258.925903,134.698715 256.608429,135.871429 
	C254.722778,136.825638 252.388763,136.893829 250.253571,137.354919 
	C250.060898,136.751083 249.868240,136.147263 249.675583,135.543427 
	C251.260895,134.856689 252.846207,134.169952 254.863586,133.296036 
	C250.410446,131.866455 248.339066,128.580521 250.447784,124.545593 
	C251.390045,122.742584 254.762115,122.209427 256.225403,121.494049 
	C260.018677,124.097450 255.039917,128.905930 260.758301,129.317200 
z"/>
<path fill="#0F4991" opacity="1.000000" stroke="none" 
	d="
M155.515823,152.577911 
	C157.974213,152.259323 160.095306,152.259323 163.002106,152.259323 
	C163.002106,156.907104 163.205276,161.778641 162.927261,166.622543 
	C162.755676,169.612030 158.445602,169.939362 155.178528,168.039551 
	C155.178528,162.576523 155.178528,157.736511 155.515823,152.577911 
z"/>
<path fill="#1F5397" opacity="1.000000" stroke="none" 
	d="
M225.007996,158.139648 
	C225.653458,158.765289 225.742722,159.514282 226.163849,159.911026 
	C226.934143,160.636719 227.900589,161.154205 228.785217,161.758514 
	C229.073151,160.762024 229.901794,159.453049 229.542175,158.830795 
	C228.653580,157.293228 226.862915,156.247192 226.088043,154.680511 
	C224.849579,152.176529 224.140350,149.410767 223.207382,146.755676 
	C225.419556,146.172729 227.620895,145.541702 229.851044,145.038406 
	C230.459473,144.901108 231.154587,145.147873 232.285492,145.269562 
	C232.407822,146.707138 232.629715,148.145264 232.596756,149.577530 
	C232.585602,150.062607 231.867569,150.963501 231.582001,150.921997 
	C230.948990,150.829926 230.384460,150.262711 229.793488,149.886902 
	C228.795486,149.252274 227.798660,148.615784 226.801331,147.980087 
	C227.045639,149.403854 226.782028,151.376083 227.623322,152.155212 
	C231.033218,155.313126 234.366302,158.279022 232.095352,163.960052 
	C229.414963,163.960052 226.532242,163.960052 222.613144,163.960052 
	C223.390579,161.670349 223.996017,159.887253 225.007996,158.139648 
z"/>
<path fill="#1B5095" opacity="1.000000" stroke="none" 
	d="
M62.155209,159.813782 
	C62.277760,155.589005 60.666569,150.641525 67.642525,151.868835 
	C67.817772,149.316483 67.960907,147.231812 68.104042,145.147156 
	C68.660439,145.105652 69.216843,145.064163 69.773247,145.022659 
	C71.918945,151.008713 70.063530,157.431686 70.896515,164.619492 
	C67.610008,162.639847 62.443386,167.461685 62.155209,159.813782 
z"/>
<path fill="#194F95" opacity="1.000000" stroke="none" 
	d="
M11.485585,153.417450 
	C12.105284,150.416733 12.614014,147.825562 13.326904,144.194504 
	C19.433893,150.015366 17.294819,157.604431 19.897585,164.308273 
	C16.586805,162.313034 13.267664,157.801926 10.700771,165.406052 
	C10.358049,164.956329 10.015327,164.506607 9.672606,164.056885 
	C10.239943,160.646912 10.807280,157.236954 11.485585,153.417450 
z"/>
<path fill="#0C4891" opacity="1.000000" stroke="none" 
	d="
M24.235611,152.132385 
	C26.152485,152.209473 27.627741,152.209473 29.088680,152.209473 
	C31.701178,160.064819 30.491133,163.630402 24.760412,164.712494 
	C24.366077,166.098633 23.956587,167.538025 23.547096,168.977432 
	C22.997952,168.976562 22.448809,168.975677 21.899666,168.974808 
	C21.803493,164.116333 21.607115,159.255707 21.711102,154.401520 
	C21.728165,153.604935 23.066378,152.836655 24.235611,152.132385 
z"/>
<path fill="#174B93" opacity="1.000000" stroke="none" 
	d="
M255.215576,160.580246 
	C255.214844,157.553406 255.214844,154.964081 255.214844,152.174042 
	C258.234375,152.174042 260.502625,152.174042 263.230774,152.174042 
	C263.230774,156.085770 263.230774,159.908585 263.230774,164.273148 
	C260.405975,163.035843 255.980377,167.334702 255.215576,160.580246 
z"/>
<path fill="#194E94" opacity="1.000000" stroke="none" 
	d="
M145.433838,152.159119 
	C147.814972,152.002075 149.781357,152.002075 152.201828,152.002075 
	C152.201828,156.075302 152.201828,159.896317 152.201828,164.010254 
	C149.757217,164.010254 147.372559,164.010254 144.068298,164.010254 
	C144.397537,159.960815 144.708298,156.138489 145.433838,152.159119 
z"/>
<path fill="#265799" opacity="1.000000" stroke="none" 
	d="
M31.854174,157.077576 
	C31.923115,155.152176 31.992008,153.712967 32.067871,152.128174 
	C34.661854,152.128174 36.934769,152.128174 39.208702,152.122513 
	C41.911373,159.625977 40.684528,163.597580 35.307465,164.747528 
	C34.799961,166.231522 34.293930,167.712646 33.787899,169.193787 
	C33.143307,169.109451 32.498718,169.025101 31.854128,168.940765 
	C31.854128,165.148422 31.854128,161.356079 31.854174,157.077576 
z"/>
<path fill="#0E97D7" opacity="1.000000" stroke="none" 
	d="
M273.883606,132.464844 
	C271.319763,132.464798 269.199829,132.464798 267.112854,132.464798 
	C267.112854,126.985443 267.112854,122.060204 267.112854,117.134964 
	C267.740875,117.096878 268.368896,117.058800 268.996948,117.020721 
	C269.188171,121.039360 269.379425,125.058006 269.591919,129.523636 
	C271.327911,129.627594 272.899963,129.721741 274.690491,129.828979 
	C275.168243,126.957390 275.598328,124.372185 276.028442,121.786980 
	C279.468292,128.412842 278.517395,131.940445 273.883606,132.464844 
z"/>
<path fill="#245397" opacity="1.000000" stroke="none" 
	d="
M116.726646,163.084534 
	C114.470406,165.251389 113.854332,164.128983 113.854263,161.902618 
	C113.854179,159.439209 113.854248,156.975800 113.854248,153.455582 
	C108.902763,156.618652 112.804405,161.401840 110.428856,164.202667 
	C107.229225,162.409286 107.209221,147.191681 110.796112,144.824890 
	C110.796112,147.130554 110.796112,149.188461 110.796112,151.577927 
	C112.824661,151.804718 114.506630,151.992752 116.757080,152.244339 
	C116.757080,155.814102 116.757080,159.247604 116.726646,163.084534 
z"/>
<path fill="#225698" opacity="1.000000" stroke="none" 
	d="
M265.812012,158.866592 
	C265.811981,156.448975 265.811981,154.498886 265.811981,152.248123 
	C268.680359,152.248123 271.059082,152.248123 273.768372,152.248123 
	C273.768372,156.174622 273.768372,159.915192 273.768372,163.997421 
	C271.409088,163.997421 269.004852,163.997421 266.101929,163.997421 
	C266.006927,162.469360 265.909485,160.901733 265.812012,158.866592 
z"/>
<path fill="#0B458F" opacity="1.000000" stroke="none" 
	d="
M207.828598,147.396179 
	C208.206802,146.323700 208.581894,145.707932 208.957001,145.092178 
	C209.424133,145.619843 210.229050,146.109207 210.294067,146.682480 
	C210.477875,148.303085 210.358398,149.958084 210.358398,151.781326 
	C212.299698,151.916061 213.889328,152.026398 215.747498,152.155365 
	C215.747498,156.296799 215.747498,160.177246 215.747498,165.008408 
	C210.961395,161.884216 214.747833,157.095734 211.195648,152.786957 
	C210.659012,157.414047 210.260941,160.846390 209.862869,164.278717 
	C209.183731,164.253250 208.504608,164.227783 207.825485,164.202301 
	C207.825485,158.752502 207.825485,153.302689 207.828598,147.396179 
z"/>
<path fill="#134A92" opacity="1.000000" stroke="none" 
	d="
M80.535927,162.764374 
	C80.508286,159.236755 80.765144,156.068115 80.418198,152.967041 
	C80.156792,150.630554 79.121765,148.380630 78.309067,145.687836 
	C80.274544,145.687836 83.321869,145.687836 87.407524,145.687836 
	C80.412651,149.927750 84.172630,155.946823 83.350021,160.996292 
	C82.864540,163.976349 83.169075,164.025955 80.535927,162.764374 
z"/>
<path fill="#0B458F" opacity="1.000000" stroke="none" 
	d="
M131.202591,152.002441 
	C133.291931,151.989517 134.920715,151.989517 136.859802,151.989517 
	C136.859802,156.130173 136.859802,159.866104 136.859802,163.924561 
	C134.367004,163.924561 131.965515,163.924561 128.265884,163.924561 
	C129.129333,159.771729 129.935684,155.893555 131.202591,152.002441 
z"/>
<path fill="#2A5B9A" opacity="1.000000" stroke="none" 
	d="
M187.353470,159.987595 
	C186.655991,158.581711 185.958527,157.175827 185.261078,155.769943 
	C184.575134,157.307159 183.735703,158.798126 183.254028,160.396881 
	C182.897781,161.579391 183.007339,162.902222 182.899780,164.286163 
	C179.285095,162.648102 179.057968,147.525742 182.597549,144.792679 
	C183.096802,147.561798 183.503494,150.165604 184.130981,152.715073 
	C184.188507,152.948868 185.657272,152.835342 186.437943,152.881165 
	C187.036255,150.193848 187.608871,147.621887 188.406891,145.428162 
	C188.491669,147.568222 188.367935,149.331573 188.206665,151.091492 
	C187.934814,154.058014 187.639130,157.022339 187.353470,159.987595 
z"/>
<path fill="#1C5196" opacity="1.000000" stroke="none" 
	d="
M91.093338,164.313171 
	C89.760422,163.500946 88.148933,162.766403 88.052757,161.869415 
	C87.723618,158.799454 87.926552,155.672424 87.926552,152.264465 
	C90.648941,152.264465 92.895859,152.264465 95.601898,152.264465 
	C95.601898,154.202713 95.601898,156.216049 95.601898,158.112595 
	C94.714958,160.047577 89.475677,157.175323 91.404129,162.645294 
	C92.739517,161.601471 93.767128,160.798233 95.117020,159.743073 
	C95.528008,160.614410 95.957268,161.128983 95.996880,161.671967 
	C96.276375,165.503387 93.315437,163.947235 91.093338,164.313171 
z"/>
<path fill="#174E94" opacity="1.000000" stroke="none" 
	d="
M172.520935,155.961029 
	C171.211212,160.642639 170.048294,164.966232 168.885361,169.289841 
	C168.465897,169.108749 168.046448,168.927673 167.626984,168.746597 
	C166.753555,163.253677 165.880127,157.760757 165.006699,152.267853 
	C165.274582,152.080002 165.542450,151.892136 165.810333,151.704285 
	C166.889389,153.074188 167.968445,154.444077 169.090302,155.868317 
	C170.012360,154.447006 170.922272,153.044418 171.832184,151.641830 
	C172.248581,151.806427 172.664978,151.971039 173.081375,152.135651 
	C172.943497,153.291443 172.805618,154.447250 172.520935,155.961029 
z"/>
<path fill="#104991" opacity="1.000000" stroke="none" 
	d="
M55.998848,164.260071 
	C54.401905,163.297653 53.110733,162.455505 52.180874,161.317993 
	C51.773540,160.819702 52.103252,159.718231 52.099735,158.890640 
	C52.068859,151.626694 52.068958,151.626694 59.809853,152.295502 
	C59.809853,154.284470 59.809853,156.311462 59.809853,158.319595 
	C55.236671,159.192078 55.236671,159.192078 55.801933,162.676453 
	C57.027279,161.761108 58.087051,160.969467 59.284027,160.075317 
	C59.602554,160.582947 59.964962,160.928528 60.049839,161.332428 
	C60.734684,164.591370 58.451538,164.262726 55.998848,164.260071 
z"/>
<path fill="#124991" opacity="1.000000" stroke="none" 
	d="
M98.683716,163.876602 
	C98.309776,160.059372 98.309776,156.455536 98.309776,152.413025 
	C100.636681,152.413025 102.991081,152.413025 105.726433,152.413025 
	C105.726433,153.654022 105.726433,154.985245 105.726433,157.000717 
	C104.062683,155.772293 102.910378,154.921509 101.232002,153.682297 
	C101.232002,156.842529 101.232002,159.320938 101.232002,162.359406 
	C102.870049,161.275528 104.067543,160.483170 105.760132,159.363205 
	C105.875603,161.146637 105.955788,162.385132 106.066177,164.089996 
	C103.544388,164.089996 101.301025,164.089996 98.683716,163.876602 
z"/>
<path fill="#154C93" opacity="1.000000" stroke="none" 
	d="
M234.841705,160.686890 
	C234.842926,157.746567 234.842926,155.263855 234.842926,152.870529 
	C241.878815,150.861404 243.307831,151.567688 242.156433,156.795212 
	C240.865723,155.813614 239.756195,154.969788 238.053253,153.674667 
	C238.053253,156.847733 238.053253,159.315018 238.053253,162.383331 
	C239.725723,161.226379 240.895798,160.416977 242.637268,159.212296 
	C242.778030,161.093018 242.868698,162.304459 243.011688,164.215149 
	C240.588699,164.215149 238.451080,164.475021 236.445511,164.074234 
	C235.743378,163.933899 235.366104,162.168060 234.841705,160.686890 
z"/>
<path fill="#2CA1DA" opacity="1.000000" stroke="none" 
	d="
M212.322144,128.461914 
	C211.795242,130.062271 211.268799,131.238800 210.742340,132.415314 
	C210.257828,131.373993 209.418762,130.353683 209.355621,129.287415 
	C209.170013,126.152641 209.203140,122.995583 209.345200,119.856064 
	C209.391647,118.829468 210.035156,117.829887 210.405609,116.817955 
	C211.044601,116.906708 211.683609,116.995461 212.322601,117.084221 
	C212.322601,120.735497 212.322601,124.386780 212.322144,128.461914 
z"/>
<path fill="#205497" opacity="1.000000" stroke="none" 
	d="
M42.542961,145.617172 
	C43.573570,145.865738 45.005901,146.475952 45.026993,147.131577 
	C45.206623,152.714264 45.129795,158.305206 45.129795,163.893677 
	C44.665710,164.083099 44.201626,164.272522 43.737541,164.461929 
	C43.222313,163.434814 42.287750,162.417755 42.262787,161.378860 
	C42.139690,156.255707 42.257591,151.126770 42.542961,145.617172 
z"/>
<path fill="#265799" opacity="1.000000" stroke="none" 
	d="
M141.844452,145.537308 
	C142.073868,151.989777 142.073868,158.041534 142.073868,164.909302 
	C140.668488,163.988129 139.400909,163.555237 139.388199,163.088165 
	C139.239899,157.644241 139.212601,152.193161 139.374069,146.750519 
	C139.390656,146.190872 140.833817,145.673569 141.844452,145.537308 
z"/>
<path fill="#114D92" opacity="1.000000" stroke="none" 
	d="
M248.077118,154.237488 
	C248.057373,156.735001 248.192093,159.248215 247.940933,161.722229 
	C247.842178,162.695053 246.880829,163.580338 245.300140,164.011978 
	C245.300140,157.758667 245.300140,151.505356 245.300140,144.852722 
	C249.814407,145.778030 247.228409,149.151749 248.012115,151.943756 
	C248.045380,153.249924 248.061249,153.743713 248.077118,154.237488 
z"/>
<path fill="#174F93" opacity="1.000000" stroke="none" 
	d="
M278.982208,154.031525 
	C278.979004,157.159332 279.048309,159.804062 278.917450,162.438843 
	C278.887726,163.037262 278.164215,163.601242 277.760071,164.181076 
	C277.191895,163.774338 276.131256,163.369553 276.129669,162.960602 
	C276.106995,157.202667 276.206329,151.443512 276.381653,145.687851 
	C276.390198,145.407501 277.371246,145.156769 278.982208,144.350006 
	C278.982208,147.891556 278.982208,150.718185 278.982208,154.031525 
z"/>
<path fill="#0497D7" opacity="1.000000" stroke="none" 
	d="
M101.953735,117.214165 
	C104.014961,125.305756 103.308411,130.984970 99.311333,132.464859 
	C100.099724,126.971107 100.804504,122.059921 101.953735,117.214165 
z"/>
<path fill="#1C5196" opacity="1.000000" stroke="none" 
	d="
M192.152496,159.675507 
	C192.428024,156.752975 192.703537,154.267151 192.979034,151.781326 
	C193.570740,151.883926 194.162445,151.986542 194.754150,152.089142 
	C194.754150,156.087906 194.754150,160.086670 194.754150,164.085434 
	C194.228180,164.206940 193.702209,164.328445 193.176239,164.449951 
	C192.834976,163.004028 192.493713,161.558121 192.152496,159.675507 
z"/>
<path fill="#0E4C92" opacity="1.000000" stroke="none" 
	d="
M123.990692,152.147324 
	C124.979141,152.849854 126.741096,153.474854 126.820641,154.268463 
	C127.145470,157.509293 126.956047,160.801636 126.956047,165.223007 
	C122.248711,162.069656 124.830711,158.142151 123.941765,154.402649 
	C123.965034,153.115936 123.977859,152.631622 123.990692,152.147324 
z"/>
<path fill="#134A92" opacity="1.000000" stroke="none" 
	d="
M50.033752,157.096329 
	C50.033806,159.676575 50.033806,161.784775 50.033806,163.892975 
	C49.697224,164.081741 49.360641,164.270508 49.024059,164.459274 
	C48.389065,163.741028 47.178577,162.991333 47.215805,162.309799 
	C47.406361,158.821136 46.222309,154.996994 47.907360,151.787277 
	C48.616138,151.875214 49.324921,151.963165 50.033699,152.051102 
	C50.033699,153.575500 50.033699,155.099884 50.033752,157.096329 
z"/>
<path fill="#003889" opacity="1.000000" stroke="none" 
	d="
M187.287384,160.412018 
	C187.639130,157.022339 187.934814,154.058014 188.206665,151.091492 
	C188.367935,149.331573 188.491669,147.568222 188.819855,145.467377 
	C189.501938,151.316452 189.996445,157.504562 190.490936,163.692673 
	C189.833618,163.893372 189.176300,164.094086 188.518982,164.294785 
	C188.086426,163.141998 187.653870,161.989227 187.287384,160.412018 
z"/>
<path fill="#003A8A" opacity="1.000000" stroke="none" 
	d="
M248.484406,154.178558 
	C248.061249,153.743713 248.045380,153.249924 248.012650,152.385849 
	C249.485748,152.015549 250.975708,152.015549 252.837372,152.015549 
	C252.837372,156.051544 252.837372,160.044510 252.837372,164.037476 
	C252.378098,164.100983 251.918823,164.164490 251.459549,164.227982 
	C251.236694,162.411469 251.180832,160.553345 250.741806,158.790680 
	C250.340637,157.179977 249.524780,155.672562 248.484406,154.178558 
z"/>
<path fill="#033D8B" opacity="1.000000" stroke="none" 
	d="
M123.616348,152.198700 
	C123.977859,152.631622 123.965034,153.115936 123.923378,153.962555 
	C123.002808,155.498322 121.665909,156.555786 121.322960,157.872192 
	C120.799271,159.882355 120.962273,162.071396 120.833733,164.184479 
	C120.360733,164.162918 119.887726,164.141342 119.414719,164.119766 
	C119.414719,160.267410 119.414719,156.415054 119.414719,152.458481 
	C120.418396,152.403824 121.830208,152.326950 123.616348,152.198700 
z"/>
<path fill="#46B63D" opacity="1.000000" stroke="none" 
	d="
M179.620422,9.964253 
	C179.117737,10.201501 178.246674,10.365144 177.194092,10.283204 
	C177.759079,9.988630 178.505554,9.939639 179.620422,9.964253 
z"/>
<path fill="#6EC468" opacity="1.000000" stroke="none" 
	d="
M184.270691,57.144028 
	C184.273865,56.967445 184.531662,56.831749 184.895203,56.840866 
	C184.842422,57.052090 184.683853,57.118504 184.270691,57.144028 
z"/>
<path fill="#3EB331" opacity="1.000000" stroke="none" 
	d="
M198.943649,10.699522 
	C198.610794,10.911581 198.362534,10.737515 198.097885,10.245407 
	C198.324631,10.159358 198.640213,10.288035 198.943649,10.699522 
z"/>
<path fill="#46B63D" opacity="1.000000" stroke="none" 
	d="
M195.746124,9.973827 
	C195.723099,10.146120 195.454407,10.254430 195.097351,10.200239 
	C195.172806,9.995106 195.336609,9.952475 195.746124,9.973827 
z"/>
<path fill="#46B63D" opacity="1.000000" stroke="none" 
	d="
M190.746124,9.973814 
	C190.723145,10.146110 190.454468,10.254438 190.097412,10.200286 
	C190.172852,9.995152 190.336639,9.952500 190.746124,9.973814 
z"/>
<path fill="#46B63D" opacity="1.000000" stroke="none" 
	d="
M186.746124,9.973850 
	C186.723129,10.146155 186.454437,10.254470 186.097397,10.200294 
	C186.172836,9.995156 186.336624,9.952508 186.746124,9.973850 
z"/>
<path fill="#46B63D" opacity="1.000000" stroke="none" 
	d="
M182.746124,9.973867 
	C182.723160,10.146200 182.454483,10.254553 182.097443,10.200439 
	C182.172867,9.995277 182.336655,9.952582 182.746124,9.973867 
z"/>
<path fill="#46B63D" opacity="1.000000" stroke="none" 
	d="
M173.746124,9.973867 
	C173.723160,10.146199 173.454483,10.254553 173.097443,10.200439 
	C173.172867,9.995277 173.336655,9.952582 173.746124,9.973867 
z"/>
<path fill="#46B63D" opacity="1.000000" stroke="none" 
	d="
M170.746109,9.974056 
	C170.723297,10.146547 170.454819,10.255083 170.097855,10.201345 
	C170.173065,9.996081 170.336761,9.953092 170.746109,9.974056 
z"/>
<path fill="#F9FCF8" opacity="1.000000" stroke="none" 
	d="
M173.009232,41.643188 
	C173.007904,36.707592 173.007904,32.236641 173.007904,27.376625 
	C172.154892,27.128016 171.140900,27.078083 170.478882,26.569746 
	C169.830246,26.071690 169.112152,25.040785 169.216476,24.366236 
	C169.314575,23.732077 170.416824,22.839157 171.129440,22.788069 
	C173.767426,22.598951 176.434952,22.597805 179.073105,22.784466 
	C179.784607,22.834806 180.875687,23.721972 180.985886,24.363575 
	C181.101273,25.035349 180.252518,25.877586 179.813644,26.638668 
	C178.985550,28.074703 177.576981,29.449957 177.430115,30.950350 
	C177.076630,34.561993 177.439331,38.238689 177.228058,41.872570 
	C177.169724,42.876095 176.109802,43.821392 175.509430,44.793411 
	C174.676483,43.898220 173.843521,43.003025 173.009232,41.643188 
z"/>
<path fill="#EBF5FA" opacity="1.000000" stroke="none" 
	d="
M114.491623,41.442219 
	C115.436409,37.336040 116.019753,33.555874 117.125916,29.935452 
	C117.538429,28.585308 119.129974,26.759781 120.261040,26.703575 
	C121.357010,26.649117 123.283508,28.417252 123.579376,29.681221 
	C125.004875,35.771107 126.002533,41.961147 127.152008,48.115646 
	C126.746620,48.494621 126.341232,48.873596 125.935844,49.252571 
	C124.781441,48.175465 123.624435,47.101124 122.473564,46.020260 
	C121.725006,45.317238 120.824356,43.920250 120.277626,44.048874 
	C119.341087,44.269211 118.633102,45.446079 117.820641,46.212284 
	C116.677307,47.290512 115.526215,48.360523 114.378441,49.434052 
	C113.971306,49.106796 113.564178,48.779545 113.157051,48.452293 
	C113.550644,46.245422 113.944237,44.038551 114.491623,41.442219 
z"/>
<path fill="#F0F2F6" opacity="1.000000" stroke="none" 
	d="
M170.045456,85.251022 
	C171.718628,88.706924 171.345703,91.861183 168.499908,93.541183 
	C166.434616,94.760429 163.507614,94.669220 160.949112,94.772369 
	C160.463043,94.791962 159.903320,92.984558 159.426971,92.110725 
	C160.247604,91.485809 160.476685,91.193123 160.765854,91.110352 
	C162.648438,90.571480 164.544098,90.078178 166.435471,89.569977 
	C165.209824,87.963455 164.192017,86.124657 162.713028,84.801262 
	C160.054474,82.422401 158.417725,79.405830 160.446335,76.510704 
	C161.771271,74.619843 164.929062,73.819176 167.427841,73.071808 
	C168.112518,72.867020 169.381271,74.615059 170.381989,75.466965 
	C170.079041,75.911003 169.776093,76.355034 169.473145,76.799065 
	C168.356110,76.799065 167.200897,76.614243 166.129578,76.835548 
	C163.475555,77.383789 163.309097,78.973541 164.994827,80.720970 
	C166.476135,82.256500 168.238495,83.520905 170.045456,85.251022 
z"/>
<path fill="#FCFCFC" opacity="1.000000" stroke="none" 
	d="
M131.103897,89.822327 
	C131.100891,90.964149 131.322968,91.748718 131.046234,92.266937 
	C130.528580,93.236374 129.721664,94.051353 129.035095,94.930588 
	C128.359482,94.050446 127.254913,93.239616 127.099098,92.275467 
	C126.791191,90.370193 127.008263,88.380089 127.008263,86.445183 
	C123.822433,85.460114 121.982597,85.760414 122.198074,89.257263 
	C122.259239,90.249832 122.459122,91.347519 122.129013,92.220665 
	C121.749283,93.225044 120.852203,94.033829 120.179825,94.927567 
	C119.481110,94.058968 118.208344,93.210182 118.177559,92.318527 
	C117.988579,86.843826 117.990372,81.356560 118.164322,75.880966 
	C118.194618,74.927429 119.345322,74.009499 119.978546,73.075119 
	C120.718575,74.074821 121.985542,75.013008 122.110634,76.084488 
	C122.777634,81.797676 122.678802,81.809212 127.006355,81.324875 
	C127.006355,79.600594 126.742958,77.757950 127.101501,76.045517 
	C127.330025,74.954048 128.480179,74.055550 129.217087,73.070518 
	C129.844116,74.010674 130.970703,74.929070 131.012787,75.894714 
	C131.207840,80.370926 131.101974,84.860237 131.103897,89.822327 
z"/>
<path fill="#D7EAF6" opacity="1.000000" stroke="none" 
	d="
M74.325668,124.434219 
	C78.227898,124.021217 80.823837,124.630272 79.579651,129.514099 
	C77.659981,129.514099 75.639931,129.514099 72.858322,129.514099 
	C73.241989,127.714417 73.582497,126.117172 74.325668,124.434219 
z"/>
</svg>