<svg version="1.1" id="Layer_1" xmlns="http://www.w3.org/2000/svg" xmlns:xlink="http://www.w3.org/1999/xlink" x="0px" y="0px"
	 width="100%" viewBox="0 0 225 225" enable-background="new 0 0 225 225" xml:space="preserve">
<path fill="#000000" opacity="1.000000" stroke="none" 
	d="
M1.000000,82.000000 
	C1.000000,54.666672 1.000000,27.833344 1.000000,1.000011 
	C75.999977,1.000007 150.999954,1.000007 225.999954,1.000004 
	C225.999969,75.999969 225.999969,150.999939 225.999985,225.999939 
	C151.000046,225.999954 76.000092,225.999954 1.000068,225.999969 
	C1.000000,178.166672 1.000000,130.333328 1.000000,82.000000 
M180.500000,15.997602 
	C125.739685,15.997602 70.979362,15.997602 16.283661,15.997602 
	C16.283661,81.306740 16.283661,146.043381 16.283661,210.716309 
	C81.306755,210.716309 146.043396,210.716309 210.716309,210.716309 
	C210.716309,145.693222 210.716309,80.956589 210.716309,15.997602 
	C200.787857,15.997602 191.143921,15.997602 180.500000,15.997602 
z"/>
<path fill="#FEFEFE" opacity="1.000000" stroke="none" 
	d="
M181.000000,15.997602 
	C191.143921,15.997602 200.787857,15.997602 210.716309,15.997602 
	C210.716309,80.956589 210.716309,145.693222 210.716309,210.716309 
	C146.043396,210.716309 81.306755,210.716309 16.283661,210.716309 
	C16.283661,146.043381 16.283661,81.306740 16.283661,15.997602 
	C70.979362,15.997602 125.739685,15.997602 181.000000,15.997602 
M69.457237,80.042587 
	C75.610558,86.292839 81.763878,92.543083 87.688377,98.560913 
	C91.553909,94.769691 94.863708,91.523529 98.891693,87.572983 
	C85.093025,73.936172 71.240433,60.246086 56.714146,45.890198 
	C67.820114,45.890198 77.903160,45.890198 88.089767,45.890198 
	C88.089767,40.827747 88.089767,36.095825 88.089767,31.262589 
	C68.990067,31.262589 50.112045,31.262589 31.306135,31.262589 
	C31.306135,50.426373 31.306135,69.313286 31.306135,87.969635 
	C36.363865,87.969635 41.097572,87.969635 46.209404,87.969635 
	C46.209404,77.607033 46.209404,67.581352 46.209404,56.567554 
	C54.254608,64.697060 61.603130,72.122589 69.457237,80.042587 
M168.386917,45.969746 
	C168.213562,46.826992 168.335876,47.974483 167.822250,48.497730 
	C160.711288,55.741928 153.534592,62.922173 146.329483,70.073219 
	C140.334000,76.023720 134.280014,81.915283 128.695206,87.397812 
	C132.566803,91.241333 135.924652,94.574821 139.868088,98.489639 
	C153.250443,85.011284 166.884766,71.279167 181.156494,56.905056 
	C181.156494,67.852829 181.156494,78.036133 181.156494,88.156975 
	C186.294159,88.156975 190.918869,88.156975 195.776245,88.156975 
	C195.776245,69.124062 195.776245,50.244068 195.776245,31.242294 
	C176.706787,31.242294 157.824203,31.242294 138.947556,31.242294 
	C138.947556,36.233536 138.947556,40.966953 138.947556,45.979424 
	C148.660782,45.979424 158.119110,45.979424 168.386917,45.969746 
M85.009026,131.377045 
	C72.251358,144.147446 59.493687,156.917862 45.870102,170.555038 
	C45.870102,159.157471 45.870102,148.971039 45.870102,138.834259 
	C40.726852,138.834259 36.098682,138.834259 31.229881,138.834259 
	C31.229881,157.862045 31.229881,176.745880 31.229881,195.756454 
	C50.290306,195.756454 69.176041,195.756454 88.049316,195.756454 
	C88.049316,190.763214 88.049316,186.029022 88.049316,180.937958 
	C77.743164,180.937958 67.691208,180.937958 57.639248,180.937958 
	C57.400337,180.577118 57.161423,180.216263 56.922512,179.855423 
	C70.772240,166.151352 84.621979,152.447296 98.170746,139.041031 
	C94.641800,135.457596 91.398552,132.164276 87.975182,128.688049 
	C87.230927,129.364853 86.391945,130.127792 85.009026,131.377045 
M141.586548,196.012024 
	C159.671310,196.012024 177.756073,196.012024 195.804626,196.012024 
	C195.804626,176.620239 195.804626,157.848450 195.804626,138.886078 
	C190.862961,138.886078 186.129303,138.886078 180.816879,138.886078 
	C180.816879,149.220657 180.816879,159.372467 180.816879,169.524277 
	C180.359802,169.779648 179.902725,170.035019 179.445648,170.290390 
	C165.795120,156.461533 152.144592,142.632675 138.610474,128.921753 
	C135.333893,132.117310 132.013428,135.355652 127.922043,139.345856 
	C141.863510,153.121033 155.720398,166.812637 170.231247,181.150391 
	C159.148376,181.150391 149.053452,181.150391 138.695847,181.150391 
	C138.695847,185.611237 138.603882,189.752151 138.781570,193.881454 
	C138.813126,194.615173 139.965607,195.300659 141.586548,196.012024 
z"/>
<path fill="#010101" opacity="1.000000" stroke="none" 
	d="
M69.204445,79.795349 
	C61.603130,72.122589 54.254608,64.697060 46.209404,56.567554 
	C46.209404,67.581352 46.209404,77.607033 46.209404,87.969635 
	C41.097572,87.969635 36.363865,87.969635 31.306135,87.969635 
	C31.306135,69.313286 31.306135,50.426373 31.306135,31.262589 
	C50.112045,31.262589 68.990067,31.262589 88.089767,31.262589 
	C88.089767,36.095825 88.089767,40.827747 88.089767,45.890198 
	C77.903160,45.890198 67.820114,45.890198 56.714146,45.890198 
	C71.240433,60.246086 85.093025,73.936172 98.891693,87.572983 
	C94.863708,91.523529 91.553909,94.769691 87.688377,98.560913 
	C81.763878,92.543083 75.610558,86.292839 69.204445,79.795349 
z"/>
<path fill="#010101" opacity="1.000000" stroke="none" 
	d="
M167.982178,45.974586 
	C158.119110,45.979424 148.660782,45.979424 138.947556,45.979424 
	C138.947556,40.966953 138.947556,36.233536 138.947556,31.242294 
	C157.824203,31.242294 176.706787,31.242294 195.776245,31.242294 
	C195.776245,50.244068 195.776245,69.124062 195.776245,88.156975 
	C190.918869,88.156975 186.294159,88.156975 181.156494,88.156975 
	C181.156494,78.036133 181.156494,67.852829 181.156494,56.905056 
	C166.884766,71.279167 153.250443,85.011284 139.868088,98.489639 
	C135.924652,94.574821 132.566803,91.241333 128.695206,87.397812 
	C134.280014,81.915283 140.334000,76.023720 146.329483,70.073219 
	C153.534592,62.922173 160.711288,55.741928 167.822250,48.497730 
	C168.335876,47.974483 168.213562,46.826992 167.982178,45.974586 
z"/>
<path fill="#010101" opacity="1.000000" stroke="none" 
	d="
M85.280998,131.133881 
	C86.391945,130.127792 87.230927,129.364853 87.975182,128.688049 
	C91.398552,132.164276 94.641800,135.457596 98.170746,139.041031 
	C84.621979,152.447296 70.772240,166.151352 56.922512,179.855423 
	C57.161423,180.216263 57.400337,180.577118 57.639248,180.937958 
	C67.691208,180.937958 77.743164,180.937958 88.049316,180.937958 
	C88.049316,186.029022 88.049316,190.763214 88.049316,195.756454 
	C69.176041,195.756454 50.290306,195.756454 31.229881,195.756454 
	C31.229881,176.745880 31.229881,157.862045 31.229881,138.834259 
	C36.098682,138.834259 40.726852,138.834259 45.870102,138.834259 
	C45.870102,148.971039 45.870102,159.157471 45.870102,170.555038 
	C59.493687,156.917862 72.251358,144.147446 85.280998,131.133881 
z"/>
<path fill="#010101" opacity="1.000000" stroke="none" 
	d="
M141.093521,196.010223 
	C139.965607,195.300659 138.813126,194.615173 138.781570,193.881454 
	C138.603882,189.752151 138.695847,185.611237 138.695847,181.150391 
	C149.053452,181.150391 159.148376,181.150391 170.231247,181.150391 
	C155.720398,166.812637 141.863510,153.121033 127.922043,139.345856 
	C132.013428,135.355652 135.333893,132.117310 138.610474,128.921753 
	C152.144592,142.632675 165.795120,156.461533 179.445648,170.290390 
	C179.902725,170.035019 180.359802,169.779648 180.816879,169.524277 
	C180.816879,159.372467 180.816879,149.220657 180.816879,138.886078 
	C186.129303,138.886078 190.862961,138.886078 195.804626,138.886078 
	C195.804626,157.848450 195.804626,176.620239 195.804626,196.012024 
	C177.756073,196.012024 159.671310,196.012024 141.093521,196.010223 
z"/>
</svg>